<svg xmlns="http://www.w3.org/2000/svg" width="1200" height="800" viewBox="0 0 1200 800"><defs><linearGradient id="b" x1="0" y1="0" x2="1" y2="1"><stop stop-color="#EEF3FF"/><stop offset="1" stop-color="#E6E9FF"/></linearGradient><linearGradient id="f" x1="0" y1="0" x2="1" y2="1"><stop stop-color="#2BD7FF"/><stop offset="1" stop-color="#765BFF"/></linearGradient><filter id="s"><feDropShadow dx="0" dy="20" stdDeviation="22" flood-color="#6A73A8" flood-opacity=".25"/></filter><style>text{font-family:-apple-system,BlinkMacSystemFont,'Segoe UI',Arial,sans-serif}</style></defs><rect width="1200" height="800" fill="url(#b)"/><circle cx="110" cy="90" r="160" fill="#75E9FF" opacity=".24"/><circle cx="1080" cy="720" r="220" fill="#9C7DFF" opacity=".18"/><text x="64" y="64" font-size="38" font-weight="780" fill="#151A2D">Вентиляторы и безопасность</text><text x="64" y="98" font-size="18" fill="#6B7288">Концептуальное отображение read-only мониторинга</text><g transform="translate(1010,34)"><rect width="126" height="42" rx="21" fill="#FFF" fill-opacity=".72"/><text x="63" y="28" text-anchor="middle" font-size="15" font-weight="700" fill="#596079">КОНЦЕПТ</text></g><g filter="url(#s)"><rect x="64" y="132" width="1072" height="600" rx="34" fill="#FFF"/><circle cx="94" cy="162" r="8" fill="#FF5F57"/><circle cx="118" cy="162" r="8" fill="#FEBC2E"/><circle cx="142" cy="162" r="8" fill="#28C840"/><rect x="64" y="192" width="260" height="540" fill="#F4F6FC"/><g font-size="18" fill="#6C7489"><text x="118" y="248">Основные</text><text x="118" y="304">Уведомления</text><text x="118" y="360">Строка меню</text><rect x="88" y="388" width="212" height="44" rx="12" fill="#2E7BFF"/><text x="118" y="416" fill="#FFF" font-weight="700">Вентиляторы</text><text x="118" y="472">Температуры</text><text x="118" y="528">Питание</text><text x="118" y="584">Диагностика</text></g><text x="370" y="245" font-size="32" font-weight="760" fill="#171C2F">Вентиляторы и безопасность</text><text x="370" y="298" font-size="20" font-weight="700" fill="#242B40">Доступные вентиляторы</text><g transform="translate(370,325)"><rect width="580" height="92" rx="22" fill="#F7F8FD"/><text x="26" y="37" font-size="19" font-weight="700" fill="#242B40">Левый вентилятор</text><text x="26" y="66" font-size="15" fill="#70798E">Мониторинг оборотов</text><text x="470" y="53" font-size="22" font-weight="760" fill="#22283C">1200 RPM</text><circle cx="548" cy="47" r="9" fill="#42D77D"/></g><g transform="translate(370,435)"><rect width="580" height="92" rx="22" fill="#F7F8FD"/><text x="26" y="37" font-size="19" font-weight="700" fill="#242B40">Правый вентилятор</text><text x="26" y="66" font-size="15" fill="#70798E">Мониторинг оборотов</text><text x="470" y="53" font-size="22" font-weight="760" fill="#22283C">1180 RPM</text><circle cx="548" cy="47" r="9" fill="#42D77D"/></g><g transform="translate(370,555)"><rect width="580" height="116" rx="22" fill="#FFF3DD" stroke="#FFCB79"/><circle cx="42" cy="58" r="21" fill="#FFB13B"/><text x="42" y="66" text-anchor="middle" font-size="25" font-weight="800" fill="#5A3400">!</text><text x="78" y="46" font-size="18" font-weight="700" fill="#6B460D">Безопасный read-only режим</text><text x="78" y="76" font-size="14" fill="#7D5A22">Показан мониторинг. Физическое управление</text><text x="78" y="98" font-size="14" fill="#7D5A22">вентиляторами не заявляется.</text></g><g transform="translate(965,282)"><circle cx="82" cy="96" r="78" fill="#141C2F"/><circle cx="82" cy="96" r="20" fill="#2A3550"/><g fill="url(#f)"><path d="M82 78C58 60 46 31 64 22c25-9 38 26 25 56Z"/><path d="M100 96c18-24 47-36 56-18 9 25-26 38-56 25Z"/><path d="M82 114c24 18 36 47 18 56-25 9-38-26-25-56Z"/><path d="M64 96c-18 24-47 36-56 18-9-25 26-38 56-25Z"/></g><text x="82" y="215" text-anchor="middle" font-size="17" font-weight="700" fill="#20263A">Тихо и безопасно</text></g></g></svg>