<svg xmlns="http://www.w3.org/2000/svg" width="1200" height="800" viewBox="0 0 1200 800"><defs><linearGradient id="b" x1="0" y1="0" x2="1" y2="1"><stop stop-color="#EEF3FF"/><stop offset="1" stop-color="#E6E9FF"/></linearGradient><linearGradient id="a"><stop stop-color="#28D7FF"/><stop offset=".5" stop-color="#7B5CFF"/><stop offset="1" stop-color="#FF4EC8"/></linearGradient><filter id="s"><feDropShadow dx="0" dy="20" stdDeviation="22" flood-color="#6A73A8" flood-opacity=".25"/></filter><style>text{font-family:-apple-system,BlinkMacSystemFont,'Segoe UI',Arial,sans-serif}</style></defs><rect width="1200" height="800" fill="url(#b)"/><circle cx="110" cy="90" r="160" fill="#75E9FF" opacity=".24"/><circle cx="1080" cy="720" r="220" fill="#9C7DFF" opacity=".18"/><text x="64" y="64" font-size="38" font-weight="780" fill="#151A2D">Основные настройки</text><text x="64" y="98" font-size="18" fill="#6B7288">Концептуальный визуал MacVitals</text><g transform="translate(1010,34)"><rect width="126" height="42" rx="21" fill="#FFF" fill-opacity=".72"/><text x="63" y="28" text-anchor="middle" font-size="15" font-weight="700" fill="#596079">КОНЦЕПТ</text></g><g filter="url(#s)"><rect x="64" y="132" width="1072" height="600" rx="34" fill="#FFF"/><circle cx="94" cy="162" r="8" fill="#FF5F57"/><circle cx="118" cy="162" r="8" fill="#FEBC2E"/><circle cx="142" cy="162" r="8" fill="#28C840"/><rect x="64" y="192" width="260" height="540" fill="#F4F6FC"/><g font-size="18" fill="#6C7489"><rect x="88" y="220" width="212" height="44" rx="12" fill="#2E7BFF"/><text x="118" y="248" fill="#FFF" font-weight="700">Основные</text><text x="118" y="304">Уведомления</text><text x="118" y="360">Строка меню</text><text x="118" y="416">Вентиляторы</text><text x="118" y="472">Температуры</text><text x="118" y="528">Питание</text><text x="118" y="584">Диагностика</text></g><text x="370" y="245" font-size="32" font-weight="760" fill="#171C2F">Основные настройки</text><text x="370" y="300" font-size="20" font-weight="700" fill="#242B40">Интервал обновления</text><rect x="370" y="324" width="520" height="48" rx="16" fill="#E9EDFA"/><rect x="515" y="330" width="100" height="36" rx="12" fill="#2E7BFF"/><g font-size="15" fill="#667087"><text x="400" y="354">1 сек</text><text x="468" y="354">2 сек</text><text x="550" y="354" fill="#FFF" font-weight="700">5 сек</text><text x="645" y="354">10 сек</text><text x="760" y="354">30 сек</text></g><text x="370" y="430" font-size="20" font-weight="700" fill="#242B40">История данных</text><rect x="370" y="454" width="520" height="48" rx="16" fill="#E9EDFA"/><rect x="378" y="460" width="98" height="36" rx="12" fill="#795CFF"/><g font-size="15" fill="#667087"><text x="407" y="484" fill="#FFF" font-weight="700">1 час</text><text x="505" y="484">3 часа</text><text x="610" y="484">6 часов</text><text x="725" y="484">12 часов</text></g><g font-size="18" fill="#2D3348"><rect x="370" y="548" width="26" height="26" rx="7" fill="#2E7BFF"/><path d="m378 561 5 5 9-12" fill="none" stroke="#FFF" stroke-width="4"/><text x="412" y="568">Запускать при входе в систему</text><rect x="370" y="598" width="26" height="26" rx="7" fill="#2E7BFF"/><path d="m378 611 5 5 9-12" fill="none" stroke="#FFF" stroke-width="4"/><text x="412" y="618">Показывать приложение в Dock</text><rect x="370" y="648" width="26" height="26" rx="7" fill="#2E7BFF"/><path d="m378 661 5 5 9-12" fill="none" stroke="#FFF" stroke-width="4"/><text x="412" y="668">Показывать уведомления</text></g><rect x="936" y="286" width="150" height="250" rx="28" fill="#11192B"/><circle cx="1011" cy="375" r="54" fill="url(#a)"/><path d="M970 375c15 0 15-30 30-30s15 58 30 58 15-42 30-42" fill="none" stroke="#FFF" stroke-width="8" stroke-linecap="round"/><text x="1011" y="468" text-anchor="middle" font-size="24" font-weight="760" fill="#FFF">MacVitals</text><text x="1011" y="498" text-anchor="middle" font-size="14" fill="#BEC7DD">Настроено под вас</text></g></svg>